<mxfile host="app.diagrams.net" modified="2024-03-03T15:05:46.371Z" agent="Mozilla/5.0 (Windows NT 10.0; Win64; x64; rv:123.0) Gecko/20100101 Firefox/123.0" etag="frD4EcO61VvM4awphdUs" version="24.0.1" type="device">
  <diagram name="1 oldal" id="gTyAqj4-adbOoO595Je8">
    <mxGraphModel dx="1050" dy="529" grid="1" gridSize="10" guides="1" tooltips="1" connect="1" arrows="1" fold="1" page="1" pageScale="1" pageWidth="827" pageHeight="1169" math="0" shadow="0">
      <root>
        <mxCell id="0" />
        <mxCell id="1" parent="0" />
        <mxCell id="izIBmqQ3XeswKk3rCBAt-1" value="Food App" style="swimlane;whiteSpace=wrap;html=1;fillColor=#00CC00;" parent="1" vertex="1">
          <mxGeometry width="720" height="470" as="geometry" />
        </mxCell>
        <mxCell id="izIBmqQ3XeswKk3rCBAt-3" value="" style="rounded=0;whiteSpace=wrap;html=1;fillColor=#000000;" parent="1" vertex="1">
          <mxGeometry y="20" width="720" height="450" as="geometry" />
        </mxCell>
        <mxCell id="izIBmqQ3XeswKk3rCBAt-4" value="" style="rounded=0;whiteSpace=wrap;html=1;fillColor=#000000;strokeColor=#CFCFCF;" parent="1" vertex="1">
          <mxGeometry y="20" width="150" height="450" as="geometry" />
        </mxCell>
        <mxCell id="izIBmqQ3XeswKk3rCBAt-5" value="" style="rounded=0;whiteSpace=wrap;html=1;fillColor=#00CC00;strokeColor=#00CC00;" parent="1" vertex="1">
          <mxGeometry y="60" width="150" height="50" as="geometry" />
        </mxCell>
        <mxCell id="izIBmqQ3XeswKk3rCBAt-6" value="&lt;font style=&quot;font-size: 22px;&quot; color=&quot;#00cc00&quot;&gt;Menü&lt;/font&gt;" style="text;html=1;align=center;verticalAlign=middle;whiteSpace=wrap;rounded=0;" parent="1" vertex="1">
          <mxGeometry y="20" width="60" height="30" as="geometry" />
        </mxCell>
        <mxCell id="izIBmqQ3XeswKk3rCBAt-7" value="&lt;div&gt;&lt;font color=&quot;#00cc00&quot;&gt;Aktív rendelések&lt;/font&gt;&lt;/div&gt;" style="rounded=0;whiteSpace=wrap;html=1;fillColor=#000000;strokeColor=#00CC00;" parent="1" vertex="1">
          <mxGeometry y="110" width="150" height="50" as="geometry" />
        </mxCell>
        <mxCell id="izIBmqQ3XeswKk3rCBAt-8" value="&lt;div&gt;&lt;font color=&quot;#00cc00&quot;&gt;Futárok&lt;/font&gt;&lt;/div&gt;" style="rounded=0;whiteSpace=wrap;html=1;fillColor=#000000;strokeColor=#00CC00;" parent="1" vertex="1">
          <mxGeometry y="160" width="150" height="50" as="geometry" />
        </mxCell>
        <mxCell id="izIBmqQ3XeswKk3rCBAt-10" value="&lt;font color=&quot;#ff0000&quot;&gt;Kijelentkezés&lt;/font&gt;" style="rounded=0;whiteSpace=wrap;html=1;fillColor=#000000;strokeColor=#00CC00;" parent="1" vertex="1">
          <mxGeometry x="25" y="430" width="100" height="30" as="geometry" />
        </mxCell>
        <mxCell id="izIBmqQ3XeswKk3rCBAt-11" value="" style="rounded=0;whiteSpace=wrap;html=1;fillColor=#000000;strokeColor=#CFCFCF;" parent="1" vertex="1">
          <mxGeometry x="150" y="20" width="290" height="450" as="geometry" />
        </mxCell>
        <mxCell id="izIBmqQ3XeswKk3rCBAt-12" value="&lt;font style=&quot;font-size: 16px;&quot; color=&quot;#00cc00&quot;&gt;Szállítási cím&lt;br&gt;&lt;/font&gt;" style="text;html=1;align=center;verticalAlign=middle;whiteSpace=wrap;rounded=0;" parent="1" vertex="1">
          <mxGeometry x="125" y="120" width="240" height="30" as="geometry" />
        </mxCell>
        <mxCell id="izIBmqQ3XeswKk3rCBAt-13" value="" style="rounded=0;whiteSpace=wrap;html=1;fillColor=#000000;strokeColor=#CFCFCF;" parent="1" vertex="1">
          <mxGeometry x="190" y="80" width="240" height="30" as="geometry" />
        </mxCell>
        <mxCell id="izIBmqQ3XeswKk3rCBAt-14" value="" style="rounded=0;whiteSpace=wrap;html=1;fillColor=#000000;strokeColor=#CFCFCF;" parent="1" vertex="1">
          <mxGeometry x="190" y="200" width="240" height="30" as="geometry" />
        </mxCell>
        <mxCell id="izIBmqQ3XeswKk3rCBAt-15" value="" style="rounded=0;whiteSpace=wrap;html=1;fillColor=#000000;strokeColor=#CFCFCF;" parent="1" vertex="1">
          <mxGeometry x="190" y="160" width="240" height="30" as="geometry" />
        </mxCell>
        <mxCell id="izIBmqQ3XeswKk3rCBAt-17" value="" style="rounded=0;whiteSpace=wrap;html=1;fillColor=#000000;strokeColor=#CFCFCF;" parent="1" vertex="1">
          <mxGeometry x="190" y="240" width="240" height="30" as="geometry" />
        </mxCell>
        <mxCell id="izIBmqQ3XeswKk3rCBAt-18" value="" style="rounded=0;whiteSpace=wrap;html=1;fillColor=#000000;strokeColor=#CFCFCF;" parent="1" vertex="1">
          <mxGeometry x="190" y="280" width="240" height="30" as="geometry" />
        </mxCell>
        <mxCell id="izIBmqQ3XeswKk3rCBAt-19" value="" style="rounded=0;whiteSpace=wrap;html=1;fillColor=#000000;strokeColor=#CFCFCF;" parent="1" vertex="1">
          <mxGeometry x="190" y="330" width="240" height="80" as="geometry" />
        </mxCell>
        <mxCell id="izIBmqQ3XeswKk3rCBAt-20" style="edgeStyle=orthogonalEdgeStyle;rounded=0;orthogonalLoop=1;jettySize=auto;html=1;exitX=0.75;exitY=1;exitDx=0;exitDy=0;" parent="1" source="izIBmqQ3XeswKk3rCBAt-17" target="izIBmqQ3XeswKk3rCBAt-17" edge="1">
          <mxGeometry relative="1" as="geometry" />
        </mxCell>
        <mxCell id="izIBmqQ3XeswKk3rCBAt-21" value="&lt;font style=&quot;font-size: 23px;&quot; color=&quot;#00cc00&quot;&gt;Rendelés felvétele&lt;/font&gt;" style="text;html=1;align=center;verticalAlign=middle;whiteSpace=wrap;rounded=0;" parent="1" vertex="1">
          <mxGeometry x="170" y="40" width="240" height="30" as="geometry" />
        </mxCell>
        <mxCell id="izIBmqQ3XeswKk3rCBAt-22" value="&lt;font color=&quot;#00cc00&quot;&gt;Mentés&lt;/font&gt;" style="rounded=1;whiteSpace=wrap;html=1;fillColor=#000000;strokeColor=#CFCFCF;" parent="1" vertex="1">
          <mxGeometry x="330" y="425" width="100" height="35" as="geometry" />
        </mxCell>
        <mxCell id="izIBmqQ3XeswKk3rCBAt-23" value="&lt;font color=&quot;#00cc00&quot;&gt;YYYY.MM.DD&lt;/font&gt;" style="rounded=1;whiteSpace=wrap;html=1;fillColor=#000000;strokeColor=#CFCFCF;" parent="1" vertex="1">
          <mxGeometry x="190" y="430" width="135" height="30" as="geometry" />
        </mxCell>
        <mxCell id="izIBmqQ3XeswKk3rCBAt-24" value="&lt;font color=&quot;#00cc00&quot;&gt;Időzítés&lt;/font&gt;" style="text;html=1;align=center;verticalAlign=middle;whiteSpace=wrap;rounded=0;" parent="1" vertex="1">
          <mxGeometry x="180" y="410" width="60" height="20" as="geometry" />
        </mxCell>
        <mxCell id="izIBmqQ3XeswKk3rCBAt-25" value="&lt;font color=&quot;#00cc00&quot;&gt;Kereső mező&lt;br&gt;&lt;/font&gt;" style="rounded=0;whiteSpace=wrap;html=1;fillColor=#000000;strokeColor=#CFCFCF;" parent="1" vertex="1">
          <mxGeometry x="450" y="80" width="260" height="30" as="geometry" />
        </mxCell>
        <mxCell id="izIBmqQ3XeswKk3rCBAt-30" value="&lt;font style=&quot;font-size: 16px;&quot; color=&quot;#00cc00&quot;&gt;Ételek&lt;/font&gt;" style="rounded=1;whiteSpace=wrap;html=1;fillColor=#000000;strokeColor=#CFCFCF;" parent="1" vertex="1">
          <mxGeometry x="440" y="32.5" width="80" height="25" as="geometry" />
        </mxCell>
        <mxCell id="izIBmqQ3XeswKk3rCBAt-31" style="edgeStyle=orthogonalEdgeStyle;rounded=0;orthogonalLoop=1;jettySize=auto;html=1;exitX=0.5;exitY=1;exitDx=0;exitDy=0;" parent="1" source="izIBmqQ3XeswKk3rCBAt-30" target="izIBmqQ3XeswKk3rCBAt-30" edge="1">
          <mxGeometry relative="1" as="geometry" />
        </mxCell>
        <mxCell id="izIBmqQ3XeswKk3rCBAt-32" value="&lt;font style=&quot;font-size: 16px;&quot; color=&quot;#00cc00&quot;&gt;Italok&lt;/font&gt;" style="rounded=1;whiteSpace=wrap;html=1;fillColor=#000000;strokeColor=#CFCFCF;" parent="1" vertex="1">
          <mxGeometry x="520" y="32.5" width="80" height="25" as="geometry" />
        </mxCell>
        <mxCell id="izIBmqQ3XeswKk3rCBAt-33" value="" style="endArrow=none;html=1;rounded=0;exitX=0;exitY=1;exitDx=0;exitDy=0;entryX=1;entryY=0.083;entryDx=0;entryDy=0;entryPerimeter=0;strokeColor=#CFCFCF;" parent="1" source="izIBmqQ3XeswKk3rCBAt-30" target="izIBmqQ3XeswKk3rCBAt-3" edge="1">
          <mxGeometry width="50" height="50" relative="1" as="geometry">
            <mxPoint x="390" y="270" as="sourcePoint" />
            <mxPoint x="440" y="220" as="targetPoint" />
          </mxGeometry>
        </mxCell>
        <mxCell id="izIBmqQ3XeswKk3rCBAt-34" value="" style="rounded=1;whiteSpace=wrap;html=1;fillColor=#000000;strokeColor=#00CC00;" parent="1" vertex="1">
          <mxGeometry x="450" y="130" width="120" height="60" as="geometry" />
        </mxCell>
        <mxCell id="izIBmqQ3XeswKk3rCBAt-35" value="" style="rounded=1;whiteSpace=wrap;html=1;fillColor=#000000;strokeColor=#00CC00;" parent="1" vertex="1">
          <mxGeometry x="590" y="130" width="120" height="60" as="geometry" />
        </mxCell>
        <mxCell id="izIBmqQ3XeswKk3rCBAt-36" value="" style="rounded=1;whiteSpace=wrap;html=1;fillColor=#000000;strokeColor=#00CC00;" parent="1" vertex="1">
          <mxGeometry x="450" y="210" width="120" height="60" as="geometry" />
        </mxCell>
        <mxCell id="izIBmqQ3XeswKk3rCBAt-37" value="" style="rounded=1;whiteSpace=wrap;html=1;fillColor=#000000;strokeColor=#00CC00;" parent="1" vertex="1">
          <mxGeometry x="590" y="210" width="120" height="60" as="geometry" />
        </mxCell>
        <mxCell id="izIBmqQ3XeswKk3rCBAt-38" value="" style="rounded=1;whiteSpace=wrap;html=1;fillColor=#000000;strokeColor=#00CC00;" parent="1" vertex="1">
          <mxGeometry x="450" y="290" width="120" height="60" as="geometry" />
        </mxCell>
        <mxCell id="izIBmqQ3XeswKk3rCBAt-39" value="" style="rounded=1;whiteSpace=wrap;html=1;fillColor=#000000;strokeColor=#00CC00;" parent="1" vertex="1">
          <mxGeometry x="590" y="290" width="120" height="60" as="geometry" />
        </mxCell>
        <mxCell id="izIBmqQ3XeswKk3rCBAt-40" value="" style="rounded=1;whiteSpace=wrap;html=1;fillColor=#000000;strokeColor=#00CC00;" parent="1" vertex="1">
          <mxGeometry x="450" y="370" width="120" height="60" as="geometry" />
        </mxCell>
        <mxCell id="izIBmqQ3XeswKk3rCBAt-42" value="" style="rounded=1;whiteSpace=wrap;html=1;fillColor=#000000;strokeColor=#00CC00;" parent="1" vertex="1">
          <mxGeometry x="590" y="370" width="120" height="60" as="geometry" />
        </mxCell>
        <mxCell id="izIBmqQ3XeswKk3rCBAt-43" value="&lt;font color=&quot;#00cc00&quot;&gt;Rendelés felvétele&lt;/font&gt;" style="rounded=1;whiteSpace=wrap;html=1;fillColor=#000000;strokeColor=#00CC00;" parent="1" vertex="1">
          <mxGeometry x="5" y="70" width="135" height="30" as="geometry" />
        </mxCell>
        <mxCell id="izIBmqQ3XeswKk3rCBAt-44" value="&lt;div&gt;&lt;font color=&quot;#00cc00&quot;&gt;Alkalmazottak kezelése&lt;br&gt;&lt;/font&gt;&lt;/div&gt;" style="rounded=0;whiteSpace=wrap;html=1;fillColor=#000000;strokeColor=#00CC00;" parent="1" vertex="1">
          <mxGeometry y="210" width="150" height="50" as="geometry" />
        </mxCell>
        <mxCell id="izIBmqQ3XeswKk3rCBAt-45" value="&lt;div&gt;&lt;font color=&quot;#00cc00&quot;&gt;Statisztikák&lt;br&gt;&lt;/font&gt;&lt;/div&gt;" style="rounded=0;whiteSpace=wrap;html=1;fillColor=#000000;strokeColor=#00CC00;" parent="1" vertex="1">
          <mxGeometry y="260" width="150" height="50" as="geometry" />
        </mxCell>
      </root>
    </mxGraphModel>
  </diagram>
</mxfile>
